grf
version=1
nRows=15
nColumns=37
inDegrees=no
endheader
time	ground_force_1_vx	ground_force_1_vy	ground_force_1_vz	ground_force_1_px	ground_force_1_py	ground_force_1_pz	ground_moment_1_mx	ground_moment_1_my	ground_moment_1_mz	ground_force_2_vx	ground_force_2_vy	ground_force_2_vz	ground_force_2_px	ground_force_2_py	ground_force_2_pz	ground_moment_2_mx	ground_moment_2_my	ground_moment_2_mz	ground_force_3_vx	ground_force_3_vy	ground_force_3_vz	ground_force_3_px	ground_force_3_py	ground_force_3_pz	ground_moment_3_mx	ground_moment_3_my	ground_moment_3_mz	ground_force_4_vx	ground_force_4_vy	ground_force_4_vz	ground_force_4_px	ground_force_4_py	ground_force_4_pz	ground_moment_4_mx	ground_moment_4_my	ground_moment_4_mz
      6.43000000	      0.00000000	     -0.00000000	      0.00000000	      0.00000000	      0.00000000	      0.00000000	      0.00000000	      0.00000000	      0.00000000	     -1.16309786	     37.50077820	   -439.73565674	   -250.77768140	  -1108.79129335	      0.00000000	      0.00000000	      0.00000000	   5074.95675354	      6.71912636	    -36.67912733	   -384.65255737	   -270.91904011	   -648.41778188	      0.00000000	      0.00000000	     -0.00000000	  -4379.06067873	      0.00000000	     -0.00000000	      0.00000000	      0.00000000	      0.00000000	      0.00000000	      0.00000000	      0.00000000	      0.00000000
      6.44000000	      0.00000000	     -0.00000000	      0.00000000	      0.00000000	      0.00000000	      0.00000000	      0.00000000	      0.00000000	      0.00000000	     -0.42643553	     36.92316437	   -438.58599854	   -252.03399374	  -1108.84288804	      0.00000000	      0.00000000	      0.00000000	   5122.89420251	      6.74201650	    -36.10378324	   -383.79586792	   -271.25670261	   -648.52680281	      0.00000000	      0.00000000	     -0.00000000	  -4465.74238458	      0.00000000	     -0.00000000	      0.00000000	      0.00000000	      0.00000000	      0.00000000	      0.00000000	      0.00000000	      0.00000000
      6.45000000	      0.00000000	     -0.00000000	      0.00000000	      0.00000000	      0.00000000	      0.00000000	      0.00000000	      0.00000000	      0.00000000	      0.17842102	     37.25262451	   -436.62255859	   -251.81131801	  -1108.64361336	      0.00000000	      0.00000000	      0.00000000	   5192.03630504	      6.64655180	    -35.98940717	   -381.70004272	   -270.65609564	   -648.51425448	      0.00000000	      0.00000000	     -0.00000000	  -4449.28010450	      0.00000000	     -0.00000000	      0.00000000	      0.00000000	      0.00000000	      0.00000000	      0.00000000	      0.00000000	      0.00000000
      6.46000000	      0.00000000	     -0.00000000	      0.00000000	      0.00000000	      0.00000000	      0.00000000	      0.00000000	      0.00000000	      0.00000000	      0.48445633	     37.25238037	   -434.68847656	   -251.80127651	  -1108.46371885	      0.00000000	      0.00000000	      0.00000000	   5114.58652457	      6.54151269	    -35.85500774	   -381.33593750	   -270.68884518	   -648.45860820	      0.00000000	      0.00000000	     -0.00000000	  -4294.96069242	      0.00000000	     -0.00000000	      0.00000000	      0.00000000	      0.00000000	      0.00000000	      0.00000000	      0.00000000	      0.00000000
      6.47000000	      0.00000000	     -0.00000000	      0.00000000	      0.00000000	      0.00000000	      0.00000000	      0.00000000	      0.00000000	      0.00000000	     -0.04240796	     37.76209259	   -432.27487183	   -251.96805260	  -1108.14947472	      0.00000000	      0.00000000	      0.00000000	   5140.21758232	      7.05056592	    -35.88164963	   -379.61892700	   -270.18337981	   -648.80461117	      0.00000000	      0.00000000	     -0.00000000	  -4414.07233344	      0.00000000	     -0.00000000	      0.00000000	      0.00000000	      0.00000000	      0.00000000	      0.00000000	      0.00000000	      0.00000000
      6.48000000	      0.00000000	     -0.00000000	      0.00000000	      0.00000000	      0.00000000	      0.00000000	      0.00000000	      0.00000000	      0.00000000	      0.30520573	     37.86165237	   -430.99102783	   -251.99547962	  -1108.96271453	      0.00000000	      0.00000000	      0.00000000	   5272.69763769	      6.48005266	    -35.97004756	   -378.48034668	   -269.64383932	   -648.83690405	      0.00000000	      0.00000000	     -0.00000000	  -4235.39846876	      0.00000000	     -0.00000000	      0.00000000	      0.00000000	      0.00000000	      0.00000000	      0.00000000	      0.00000000	      0.00000000
      6.49000000	      0.00000000	     -0.00000000	      0.00000000	      0.00000000	      0.00000000	      0.00000000	      0.00000000	      0.00000000	      0.00000000	     -0.01860505	     37.94603729	   -431.32589722	   -252.21282147	  -1109.44321896	      0.00000000	      0.00000000	      0.00000000	   5266.33387384	      6.64889592	    -36.07721768	   -377.52453613	   -269.83627539	   -649.78693443	      0.00000000	      0.00000000	     -0.00000000	  -4278.88317174	      0.00000000	     -0.00000000	      0.00000000	      0.00000000	      0.00000000	      0.00000000	      0.00000000	      0.00000000	      0.00000000
      6.50000000	      0.00000000	     -0.00000000	      0.00000000	      0.00000000	      0.00000000	      0.00000000	      0.00000000	      0.00000000	      0.00000000	      0.06559768	     37.81488419	   -433.31030273	   -252.47288571	  -1109.72357098	      0.00000000	      0.00000000	      0.00000000	   5305.98791858	      6.27510522	    -35.66810281	   -376.67980957	   -269.63678964	   -648.77075645	      0.00000000	      0.00000000	     -0.00000000	  -4325.02756391	      0.00000000	     -0.00000000	      0.00000000	      0.00000000	      0.00000000	      0.00000000	      0.00000000	      0.00000000	      0.00000000
      6.51000000	      0.00000000	     -0.00000000	      0.00000000	      0.00000000	      0.00000000	      0.00000000	      0.00000000	      0.00000000	      0.00000000	     -0.30949494	     37.22016144	   -431.58587646	   -252.91861652	  -1109.80135249	      0.00000000	      0.00000000	      0.00000000	   5184.27774368	      5.83149075	    -35.46363119	   -377.54458618	   -269.18646662	   -648.42528375	      0.00000000	      0.00000000	     -0.00000000	  -4245.67329538	      0.00000000	     -0.00000000	      0.00000000	      0.00000000	      0.00000000	      0.00000000	      0.00000000	      0.00000000	      0.00000000
      6.52000000	      0.00000000	     -0.00000000	      0.00000000	      0.00000000	      0.00000000	      0.00000000	      0.00000000	      0.00000000	      0.00000000	      0.01802428	     37.09625626	   -431.37182617	   -252.77843951	  -1109.63673475	      0.00000000	      0.00000000	      0.00000000	   5211.13463441	      5.87838151	    -35.22729925	   -377.45327759	   -268.59622885	   -648.28400174	      0.00000000	      0.00000000	     -0.00000000	  -4367.10412213	      0.00000000	     -0.00000000	      0.00000000	      0.00000000	      0.00000000	      0.00000000	      0.00000000	      0.00000000	      0.00000000
      6.53000000	      0.00000000	     -0.00000000	      0.00000000	      0.00000000	      0.00000000	      0.00000000	      0.00000000	      0.00000000	      0.00000000	      0.38666362	     36.74551010	   -430.00851440	   -252.78136739	  -1109.09639602	      0.00000000	      0.00000000	      0.00000000	   5507.56560783	      5.28103282	    -35.22237061	   -376.71298218	   -268.38601969	   -647.99662610	      0.00000000	      0.00000000	     -0.00000000	  -4288.20110007	      0.00000000	     -0.00000000	      0.00000000	      0.00000000	      0.00000000	      0.00000000	      0.00000000	      0.00000000	      0.00000000
      6.54000000	      0.00000000	     -0.00000000	      0.00000000	      0.00000000	      0.00000000	      0.00000000	      0.00000000	      0.00000000	      0.00000000	     -0.30284995	     36.74557114	   -430.05392456	   -252.35125614	  -1109.51898229	      0.00000000	      0.00000000	      0.00000000	   5362.29040187	      4.88482023	    -35.31657834	   -377.48074341	   -267.48959957	   -647.52748369	      0.00000000	      0.00000000	     -0.00000000	  -4248.14762618	      0.00000000	     -0.00000000	      0.00000000	      0.00000000	      0.00000000	      0.00000000	      0.00000000	      0.00000000	      0.00000000
      6.55000000	      0.00000000	     -0.00000000	      0.00000000	      0.00000000	      0.00000000	      0.00000000	      0.00000000	      0.00000000	      0.00000000	     -0.91603744	     36.12172699	   -428.57095337	   -251.78739641	  -1109.17988291	      0.00000000	      0.00000000	      0.00000000	   5320.59793339	      4.65431857	    -35.46414225	   -376.54824829	   -267.22755546	   -647.51096351	      0.00000000	      0.00000000	     -0.00000000	  -4269.66121637	      0.00000000	     -0.00000000	      0.00000000	      0.00000000	      0.00000000	      0.00000000	      0.00000000	      0.00000000	      0.00000000
      6.56000000	      0.00000000	     -0.00000000	      0.00000000	      0.00000000	      0.00000000	      0.00000000	      0.00000000	      0.00000000	      0.00000000	     -1.08772016	     36.25209045	   -424.99746704	   -251.43919128	  -1108.12596058	      0.00000000	      0.00000000	      0.00000000	   5393.14604119	      4.44181660	    -35.12838784	   -376.75930786	   -266.89591593	   -647.86513773	      0.00000000	     -0.00000000	     -0.00000000	  -4122.07006779	      0.00000000	     -0.00000000	      0.00000000	      0.00000000	      0.00000000	      0.00000000	      0.00000000	      0.00000000	      0.00000000
      6.57000000	      0.00000000	     -0.00000000	      0.00000000	      0.00000000	      0.00000000	      0.00000000	      0.00000000	      0.00000000	      0.00000000	     -1.20081472	     36.89998627	   -427.89147949	   -251.17456345	  -1109.50873495	      0.00000000	      0.00000000	      0.00000000	   5369.27376387	      4.15863963	    -35.94043387	   -377.36486816	   -266.70427208	   -648.68323137	      0.00000000	      0.00000000	      0.00000000	  -4188.09979405	      0.00000000	     -0.00000000	      0.00000000	      0.00000000	      0.00000000	      0.00000000	      0.00000000	      0.00000000	      0.00000000
